<svg width="115" height="34" viewBox="0 0 115 34" fill="none" xmlns="http://www.w3.org/2000/svg">
<g clip-path="url(#clip0_1_2)">
<path fill-rule="evenodd" clip-rule="evenodd" d="M17 34C26.3888 34 34 26.3888 34 17C34 7.61116 26.3888 0 17 0C7.61114 0 0 7.61116 0 17C0 26.3888 7.61114 34 17 34ZM22.3034 7.91931C22.5616 7.00234 21.6717 6.46011 20.859 7.0391L9.51415 15.1211C8.63278 15.749 8.77142 17 9.7224 17H12.7098V16.9768H18.5321L13.788 18.6508L11.6966 26.0807C11.4385 26.9977 12.3282 27.5399 13.141 26.9609L24.4859 18.8789C25.3672 18.251 25.2285 17 24.2776 17H19.7473L22.3034 7.91931Z" fill="#0260FF"/>
</g>
<path d="M42.444 21.12C41.94 19.88 41.408 18.48 40.848 16.92C40.296 15.352 39.74 13.712 39.18 12C39.668 11.912 40.116 11.852 40.524 11.82C40.94 11.78 41.348 11.76 41.748 11.76C41.932 12.48 42.124 13.22 42.324 13.98C42.532 14.74 42.74 15.48 42.948 16.2C43.164 16.92 43.368 17.584 43.56 18.192C43.752 18.8 43.92 19.308 44.064 19.716C44.24 19.236 44.452 18.592 44.7 17.784C44.948 16.976 45.216 16.06 45.504 15.036C45.792 14.012 46.084 12.936 46.38 11.808L47.82 11.904C47.38 13.432 46.88 14.972 46.32 16.524C45.768 18.068 45.18 19.56 44.556 21L42.444 21.12ZM48.612 13.5V11.88H50.652V13.5H48.612ZM48.66 21.024C48.652 20.76 48.644 20.404 48.636 19.956C48.628 19.5 48.62 18.98 48.612 18.396C48.612 17.804 48.608 17.172 48.6 16.5C48.6 15.828 48.6 15.14 48.6 14.436C48.96 14.436 49.336 14.44 49.728 14.448C50.128 14.456 50.44 14.468 50.664 14.484C50.664 15.068 50.66 15.68 50.652 16.32C50.652 16.96 50.648 17.584 50.64 18.192C50.64 18.792 50.636 19.336 50.628 19.824C50.62 20.312 50.612 20.696 50.604 20.976C50.236 20.992 49.884 21.004 49.548 21.012C49.212 21.02 48.916 21.024 48.66 21.024ZM54.2935 21.06C53.7895 21.06 53.3335 20.916 52.9255 20.628C52.5255 20.34 52.2095 19.944 51.9775 19.44C51.7455 18.936 51.6295 18.368 51.6295 17.736C51.6295 17.08 51.7495 16.488 51.9895 15.96C52.2375 15.432 52.5695 15.012 52.9855 14.7C53.4015 14.38 53.8615 14.22 54.3655 14.22C54.8215 14.22 55.3015 14.352 55.8055 14.616C55.8055 13.552 55.8055 12.652 55.8055 11.916C55.9895 11.916 56.2055 11.92 56.4535 11.928C56.7095 11.928 56.9655 11.932 57.2215 11.94C57.4775 11.948 57.6935 11.956 57.8695 11.964C57.8695 12.372 57.8695 12.86 57.8695 13.428C57.8695 13.988 57.8655 14.588 57.8575 15.228C57.8575 15.868 57.8535 16.504 57.8455 17.136C57.8455 17.76 57.8415 18.344 57.8335 18.888C57.8335 19.432 57.8295 19.892 57.8215 20.268C57.8215 20.644 57.8175 20.896 57.8095 21.024C57.4655 21.024 57.1135 21.016 56.7535 21C56.3935 20.992 56.0975 20.984 55.8655 20.976C55.8655 20.872 55.8615 20.724 55.8535 20.532C55.3575 20.884 54.8375 21.06 54.2935 21.06ZM53.4415 17.352C53.4415 17.872 53.5015 18.34 53.6215 18.756C53.7495 19.164 53.9175 19.488 54.1255 19.728C54.3415 19.96 54.5815 20.076 54.8455 20.076C55.2055 20.076 55.5375 19.864 55.8415 19.44C55.8335 18.968 55.8255 18.436 55.8175 17.844C55.8175 17.244 55.8175 16.636 55.8175 16.02C55.6815 15.756 55.5095 15.552 55.3015 15.408C55.1015 15.256 54.8815 15.18 54.6415 15.18C54.2655 15.18 53.9695 15.372 53.7535 15.756C53.5455 16.132 53.4415 16.664 53.4415 17.352ZM59.4248 22.584L59.3048 21.456C59.7288 21.432 60.1088 21.376 60.4448 21.288C60.7888 21.208 61.1008 21.08 61.3808 20.904C61.0448 20.232 60.7048 19.516 60.3608 18.756C60.0168 17.996 59.6888 17.248 59.3768 16.512C59.0728 15.768 58.8088 15.088 58.5848 14.472C58.8728 14.424 59.2328 14.376 59.6648 14.328C60.0968 14.28 60.5208 14.24 60.9368 14.208C61.1368 14.824 61.4008 15.564 61.7288 16.428C62.0568 17.292 62.4128 18.2 62.7968 19.152C63.0608 18.616 63.3128 17.948 63.5528 17.148C63.7928 16.348 64.0528 15.384 64.3328 14.256L65.7848 14.424C65.3928 15.864 64.9808 17.096 64.5488 18.12C64.1248 19.136 63.6608 19.968 63.1568 20.616C62.6608 21.264 62.1048 21.744 61.4888 22.056C60.8728 22.368 60.1848 22.544 59.4248 22.584ZM68.5703 21.06C67.8903 21.06 67.3343 20.896 66.9023 20.568C66.4783 20.232 66.2663 19.796 66.2663 19.26C66.2663 18.772 66.4423 18.32 66.7943 17.904C67.1543 17.488 67.6503 17.136 68.2823 16.848C68.9143 16.552 69.6383 16.348 70.4543 16.236C70.1663 15.532 69.7703 15.18 69.2663 15.18C68.9623 15.18 68.5703 15.296 68.0903 15.528C67.6103 15.76 67.1223 16.064 66.6263 16.44L66.2663 15.24C67.4583 14.56 68.5863 14.22 69.6503 14.22C70.4823 14.22 71.1503 14.448 71.6543 14.904C72.1583 15.352 72.5263 16.072 72.7583 17.064C72.9903 18.048 73.1063 19.352 73.1063 20.976C72.9543 20.984 72.6823 20.992 72.2903 21C71.9063 21.016 71.4903 21.024 71.0423 21.024C71.0423 20.768 71.0383 20.516 71.0303 20.268C70.2063 20.796 69.3863 21.06 68.5703 21.06ZM68.2463 19.176C68.2463 19.424 68.3423 19.62 68.5343 19.764C68.7343 19.908 68.9983 19.98 69.3263 19.98C69.9023 19.98 70.4583 19.732 70.9943 19.236C70.9463 18.388 70.8543 17.672 70.7183 17.088C70.4063 17.152 70.1023 17.256 69.8063 17.4C69.5183 17.544 69.2543 17.716 69.0143 17.916C68.7823 18.108 68.5943 18.316 68.4503 18.54C68.3143 18.756 68.2463 18.968 68.2463 19.176ZM74.0648 21.048C74.0648 20.736 74.0648 20.324 74.0648 19.812C74.0648 19.3 74.0648 18.736 74.0648 18.12C74.0728 17.504 74.0768 16.876 74.0768 16.236C74.0768 15.596 74.0768 14.984 74.0768 14.4C74.0848 13.816 74.0928 13.304 74.1008 12.864C74.1088 12.424 74.1168 12.1 74.1248 11.892L76.2848 11.964C76.2608 12.604 76.2408 13.328 76.2248 14.136C76.2168 14.936 76.2088 15.752 76.2008 16.584C76.8248 15.88 77.4328 15.132 78.0248 14.34C78.6168 13.548 79.2168 12.688 79.8248 11.76L81.4568 12.12C80.7528 13.072 79.9448 14.044 79.0328 15.036C79.3448 15.58 79.6648 16.176 79.9928 16.824C80.3208 17.464 80.6368 18.128 80.9408 18.816C81.2528 19.496 81.5408 20.172 81.8048 20.844C81.3808 20.916 80.9608 20.968 80.5448 21C80.1288 21.04 79.6968 21.06 79.2488 21.06C79.1208 20.644 78.9648 20.188 78.7808 19.692C78.6048 19.188 78.4088 18.672 78.1928 18.144C77.9768 17.616 77.7568 17.1 77.5328 16.596C77.1008 17.028 76.6528 17.46 76.1888 17.892C76.1808 18.452 76.1768 18.992 76.1768 19.512C76.1768 20.032 76.1768 20.52 76.1768 20.976L74.0648 21.048ZM85.2479 21.06C84.6159 21.06 84.0439 20.912 83.5319 20.616C83.0199 20.32 82.6119 19.92 82.3079 19.416C82.0119 18.912 81.8639 18.352 81.8639 17.736C81.8639 17.248 81.9559 16.792 82.1399 16.368C82.3239 15.944 82.5799 15.572 82.9079 15.252C83.2439 14.924 83.6279 14.672 84.0599 14.496C84.4919 14.312 84.9519 14.22 85.4399 14.22C86.0719 14.22 86.6439 14.368 87.1559 14.664C87.6679 14.96 88.0719 15.36 88.3679 15.864C88.6719 16.36 88.8239 16.92 88.8239 17.544C88.8239 18.032 88.7319 18.488 88.5479 18.912C88.3639 19.336 88.1039 19.712 87.7679 20.04C87.4399 20.36 87.0599 20.612 86.6279 20.796C86.2039 20.972 85.7439 21.06 85.2479 21.06ZM85.5959 20.088C86.0199 20.088 86.3519 19.908 86.5919 19.548C86.8319 19.18 86.9519 18.672 86.9519 18.024C86.9519 17.48 86.8719 16.996 86.7119 16.572C86.5519 16.148 86.3319 15.812 86.0519 15.564C85.7719 15.316 85.4519 15.192 85.0919 15.192C84.6679 15.192 84.3359 15.376 84.0959 15.744C83.8559 16.104 83.7359 16.608 83.7359 17.256C83.7359 17.792 83.8159 18.276 83.9759 18.708C84.1359 19.132 84.3559 19.468 84.6359 19.716C84.9239 19.964 85.2439 20.088 85.5959 20.088ZM92.9717 21.06C92.6437 21.06 92.2717 21.036 91.8557 20.988C91.4397 20.932 91.0277 20.864 90.6197 20.784C90.2117 20.696 89.8517 20.604 89.5397 20.508L90.0677 19.056C90.3717 19.232 90.7077 19.4 91.0757 19.56C91.4517 19.712 91.8197 19.836 92.1797 19.932C92.5397 20.028 92.8477 20.076 93.1037 20.076C93.4477 20.076 93.6997 20 93.8597 19.848C94.0197 19.688 94.0997 19.52 94.0997 19.344C94.0997 19.136 94.0117 18.964 93.8357 18.828C93.6597 18.684 93.4277 18.56 93.1397 18.456C92.8597 18.344 92.5557 18.24 92.2277 18.144C91.9317 18.056 91.6357 17.96 91.3397 17.856C91.0437 17.752 90.7717 17.632 90.5237 17.496C90.2837 17.352 90.0877 17.18 89.9357 16.98C89.7917 16.78 89.7197 16.54 89.7197 16.26C89.7197 15.9 89.8477 15.568 90.1037 15.264C90.3597 14.952 90.7237 14.7 91.1957 14.508C91.6677 14.316 92.2277 14.22 92.8757 14.22C93.4037 14.22 93.9357 14.288 94.4717 14.424C95.0157 14.56 95.5117 14.752 95.9597 15L95.2877 16.14C94.8477 15.86 94.4197 15.632 94.0037 15.456C93.5957 15.272 93.2077 15.18 92.8397 15.18C92.4877 15.18 92.2197 15.256 92.0357 15.408C91.8517 15.56 91.7597 15.716 91.7597 15.876C91.7597 16.028 91.8317 16.156 91.9757 16.26C92.1197 16.356 92.3117 16.44 92.5517 16.512C92.7997 16.584 93.0637 16.656 93.3437 16.728C93.6557 16.8 93.9757 16.888 94.3037 16.992C94.6317 17.088 94.9357 17.212 95.2157 17.364C95.4957 17.516 95.7197 17.712 95.8877 17.952C96.0557 18.184 96.1397 18.476 96.1397 18.828C96.1397 19.26 96.0037 19.644 95.7317 19.98C95.4597 20.316 95.0837 20.58 94.6037 20.772C94.1317 20.964 93.5877 21.06 92.9717 21.06ZM99.1079 21.024C98.8119 21.024 98.4759 21.016 98.0999 21C97.7319 20.992 97.4199 20.984 97.1639 20.976C97.1559 20.792 97.1479 20.504 97.1399 20.112C97.1399 19.712 97.1359 19.244 97.1279 18.708C97.1279 18.172 97.1239 17.604 97.1159 17.004C97.1159 16.396 97.1119 15.788 97.1039 15.18C97.1039 14.564 97.1039 13.98 97.1039 13.428C97.1039 12.868 97.1039 12.38 97.1039 11.964C97.2799 11.956 97.4919 11.948 97.7399 11.94C97.9879 11.932 98.2399 11.928 98.4959 11.928C98.7599 11.92 98.9839 11.916 99.1679 11.916C99.1679 12.292 99.1679 12.732 99.1679 13.236C99.1679 13.732 99.1639 14.256 99.1559 14.808C99.4359 14.624 99.7279 14.48 100.032 14.376C100.344 14.272 100.648 14.22 100.944 14.22C101.888 14.22 102.584 14.768 103.032 15.864C103.48 16.96 103.704 18.664 103.704 20.976C103.504 20.992 103.248 21.004 102.936 21.012C102.624 21.02 102.192 21.024 101.64 21.024C101.64 17.128 101.22 15.18 100.38 15.18C100.172 15.18 99.9559 15.284 99.7319 15.492C99.5159 15.7 99.3239 15.968 99.1559 16.296C99.1479 16.848 99.1399 17.384 99.1319 17.904C99.1319 18.416 99.1279 18.888 99.1199 19.32C99.1199 19.752 99.1159 20.12 99.1079 20.424C99.1079 20.72 99.1079 20.92 99.1079 21.024Z" fill="black"/>
<path d="M39 22.5H58.8141V23.1H39V22.5ZM60.7641 22.5H104.064V23.1H60.7641V22.5Z" fill="black"/>
<defs>
<clipPath id="clip0_1_2">
<rect width="34" height="34" fill="white"/>
</clipPath>
</defs>
</svg>
